<?xml version="1.0" encoding="utf-8"?>
<!-- Generator: Adobe Illustrator 19.0.1, SVG Export Plug-In . SVG Version: 6.00 Build 0)  -->
<svg version="1.1" id="Layer_1" xmlns="http://www.w3.org/2000/svg" xmlns:xlink="http://www.w3.org/1999/xlink" x="0px" y="0px"
	 viewBox="0 0 32.8 10.8" style="enable-background:new 0 0 32.8 10.8;" xml:space="preserve">
<style type="text/css">
	.st0{fill:#6D6E71;}
</style>
<g>
	<path class="st0" d="M3,8.5H2.1L0,2.7h0.8l1.7,5h0l1.8-5h0.8L3,8.5z"/>
	<path class="st0" d="M11,0h0.8v8.5H11V0z"/>
	<path class="st0" d="M12.7,7.6c0.5,0.2,1,0.4,1.6,0.4c0.7,0,1.4-0.4,1.4-1c0-1.4-2.9-1.1-2.9-2.8c0-1.1,1-1.6,2-1.6
		c0.3,0,1,0.1,1.5,0.3l-0.1,0.6c-0.4-0.2-0.9-0.3-1.4-0.3c-0.8,0-1.3,0.2-1.3,1c0,1.1,3,0.9,3,2.8c0,1.2-1.2,1.6-2.1,1.6
		c-0.6,0-1.2-0.1-1.7-0.3L12.7,7.6z"/>
	<path class="st0" d="M17.4,2.7h0.8l0,1h0c0.2-0.3,0.7-1.2,2-1.2c1.8,0,2.5,1.3,2.5,3c0,1.7-0.8,3-2.5,3c-1,0-1.5-0.4-1.9-1.1h0v3.3
		h-0.8V2.7z M20,3.2c-1.3,0-1.8,1.4-1.8,2.4c0,1,0.5,2.4,1.8,2.4c1.4,0,1.8-1.3,1.8-2.4C21.8,4.5,21.4,3.2,20,3.2z"/>
	<path class="st0" d="M29,4c0-0.6,0-0.9,0-1.3h0.8v1.1h0c0.3-0.6,0.8-1.2,1.6-1.2c0.2,0,0.4,0,0.5,0.1v0.7c-0.2,0-0.4-0.1-0.6-0.1
		c-1.2,0-1.5,1.3-1.5,2.3v2.8H29V4z"/>
	<path class="st0" d="M9.1,7.5L9.1,7.5c-0.4,0.7-1.2,1.1-2,1.1c-1.7,0-2-1.1-2-1.6c0-1.9,2.2-2,3.8-2H9V4.7c0-1-0.4-1.5-1.4-1.5
		C7,3.2,6.4,3.3,5.8,3.7V3c0.5-0.2,1.3-0.4,1.8-0.4c1.5,0,2.2,0.6,2.2,2.1v2.5c0,0.5,0,0.8,0.1,1.2H9.1V7.5z M9,6l0-1
		C8.8,5.4,8.4,5.5,8.2,5.6l0,0C7,5.6,5.9,5.9,5.9,6.9c0,0.8,0.6,1,1.3,1C8.9,8,9,6.7,9,6L9,6z"/>
	<path class="st0" d="M27.1,7.5L27.1,7.5c-0.4,0.7-1.2,1.1-2,1.1c-1.7,0-2-1.1-2-1.6c0-1.9,2.2-2,3.8-2h0.1V4.7c0-1-0.4-1.5-1.4-1.5
		c-0.6,0-1.2,0.1-1.8,0.5V3c0.5-0.2,1.3-0.4,1.8-0.4c1.5,0,2.2,0.6,2.2,2.1v2.5c0,0.5,0,0.8,0.1,1.2h-0.7V7.5z M27.1,6l0-1
		c-0.2,0.4-0.6,0.6-0.8,0.6l0,0C25.1,5.6,24,5.9,24,6.9c0,0.8,0.6,1,1.3,1C26.9,8,27.1,6.7,27.1,6L27.1,6z"/>
	<path class="st0" d="M32.2,2.9c0-0.2,0.1-0.3,0.3-0.3c0.2,0,0.3,0.1,0.3,0.3c0,0.2-0.1,0.3-0.3,0.3C32.3,3.2,32.2,3.1,32.2,2.9z
		 M32.7,2.9c0-0.2-0.1-0.3-0.2-0.3c-0.1,0-0.2,0.1-0.2,0.3c0,0.2,0.1,0.3,0.2,0.3C32.6,3.1,32.7,3,32.7,2.9z M32.4,2.7h0.1
		c0.1,0,0.1,0,0.1,0.1c0,0.1,0,0.1-0.1,0.1l0.1,0.2h-0.1l-0.1-0.2h0v0.2h-0.1V2.7z M32.4,2.9L32.4,2.9c0.1,0,0.1,0,0.1-0.1
		c0,0,0-0.1-0.1-0.1h-0.1V2.9z"/>
</g>
</svg>
